<svg xmlns="http://www.w3.org/2000/svg" viewBox="2175 2812 40 33.531">
  <defs>
    <style>
      .cls-1 {
        fill: #a5a5a5;
      }
    </style>
  </defs>
  <g id="group" transform="translate(2175 2773.52)">
    <g id="Group_7" data-name="Group 7" transform="translate(0 38.48)">
      <g id="Group_6" data-name="Group 6" transform="translate(0 0)">
        <path id="Path_16" data-name="Path 16" class="cls-1" d="M151.549,66.162a11.078,11.078,0,0,0,2.056,6.07c1.462,2.083,3.31,3.23,5.2,3.23s3.742-1.147,5.2-3.23a11.078,11.078,0,0,0,2.056-6.07,7.26,7.26,0,0,0-14.521,0Zm7.261-6a6.006,6.006,0,0,1,6,6,9.917,9.917,0,0,1-1.827,5.346c-1.2,1.712-2.722,2.694-4.172,2.694s-2.971-.982-4.172-2.694a9.917,9.917,0,0,1-1.828-5.346A6.006,6.006,0,0,1,158.81,60.163Z" transform="translate(-138.81 -57.185)"/>
        <path id="Path_17" data-name="Path 17" class="cls-1" d="M105.857,238.5a.631.631,0,0,0-.716.123,6.217,6.217,0,0,1-9.4,0,.63.63,0,0,0-.716-.123,12.617,12.617,0,0,0-7.2,11.4v.01a.631.631,0,0,0,.207.467,18.48,18.48,0,0,0,24.82,0,.63.63,0,0,0,.207-.467v-.01a12.616,12.616,0,0,0-7.2-11.4Zm-5.418,15.4a17.177,17.177,0,0,1-11.353-4.272,11.355,11.355,0,0,1,6.092-9.8,7.388,7.388,0,0,0,10.523,0,11.354,11.354,0,0,1,6.091,9.8A17.177,17.177,0,0,1,100.439,253.9Z" transform="translate(-80.44 -221.63)"/>
        <path id="Path_18" data-name="Path 18" class="cls-1" d="M319.73,199.808a11.017,11.017,0,0,0-4.528-3.984.63.63,0,0,0-.716.123,5.69,5.69,0,0,1-4.006,1.834,5.017,5.017,0,0,1-2.259-.551.63.63,0,1,0-.564,1.128,6.265,6.265,0,0,0,2.823.684,6.779,6.779,0,0,0,4.563-1.886,9.734,9.734,0,0,1,5.168,8.33,14.882,14.882,0,0,1-5.372,3,.63.63,0,1,0,.371,1.205,16.148,16.148,0,0,0,6.059-3.454.63.63,0,0,0,.207-.467v-.009A10.959,10.959,0,0,0,319.73,199.808Z" transform="translate(-281.476 -182.541)"/>
        <path id="Path_19" data-name="Path 19" class="cls-1" d="M61.316,52.938a4.419,4.419,0,0,0,1.977-.483.63.63,0,1,0-.561-1.129,3.171,3.171,0,0,1-1.416.351,4.631,4.631,0,0,1-3.527-2.286,8.464,8.464,0,0,1-1.56-4.562,5.087,5.087,0,0,1,8.619-3.662.63.63,0,1,0,.875-.907,6.348,6.348,0,0,0-10.755,4.57,9.646,9.646,0,0,0,1.789,5.286A5.766,5.766,0,0,0,61.316,52.938Z" transform="translate(-50.346 -38.48)"/>
        <path id="Path_20" data-name="Path 20" class="cls-1" d="M5.131,207.9a14.738,14.738,0,0,1-3.866-2.438,9.707,9.707,0,0,1,5.153-8.306,6.76,6.76,0,0,0,4.551,1.881,6.257,6.257,0,0,0,2.844-.7.63.63,0,1,0-.569-1.125,5.008,5.008,0,0,1-2.275.56,5.671,5.671,0,0,1-3.993-1.829.631.631,0,0,0-.716-.123A10.969,10.969,0,0,0,0,205.731v.009a.631.631,0,0,0,.207.467,16,16,0,0,0,4.424,2.849.63.63,0,0,0,.5-1.158Z" transform="translate(0 -182.541)"/>
        <path id="Path_21" data-name="Path 21" class="cls-1" d="M69.329,346.849a.63.63,0,1,0,1.164,0A.634.634,0,0,0,69.329,346.849Z" transform="translate(-63.457 -320.579)"/>
        <path id="Path_22" data-name="Path 22" class="cls-1" d="M83.651,350.882c.016.038-.015-.039,0,0Z" transform="translate(-76.616 -324.612)"/>
        <path id="Path_23" data-name="Path 23" class="cls-1" d="M291.706,41.167a5.087,5.087,0,0,1,8.619,3.662,8.463,8.463,0,0,1-1.56,4.562,4.631,4.631,0,0,1-3.527,2.286,3.171,3.171,0,0,1-1.416-.351.63.63,0,1,0-.561,1.129,4.419,4.419,0,0,0,1.977.483,5.766,5.766,0,0,0,4.56-2.823,9.645,9.645,0,0,0,1.789-5.286,6.348,6.348,0,0,0-10.755-4.57.63.63,0,0,0,.875.907Z" transform="translate(-266.207 -38.481)"/>
      </g>
    </g>
  </g>
</svg>
