<svg xmlns="http://www.w3.org/2000/svg" viewBox="3875 2541 32 30.476">
  <defs>
    <style>
      .cls-1 {
        fill: #585858;
      }
    </style>
  </defs>
  <g id="turn-notifications-on-button" transform="translate(3875 2528.25)">
    <g id="notifications-on" transform="translate(0 12.75)">
      <path id="Path_80" data-name="Path 80" class="cls-1" d="M8.533,15.188,6.4,13.055A16.067,16.067,0,0,0,0,24.94H3.048A12.593,12.593,0,0,1,8.533,15.188ZM28.952,24.94H32a15.915,15.915,0,0,0-6.248-11.886l-2.133,2.133A12.889,12.889,0,0,1,28.952,24.94ZM25.9,25.7a9.806,9.806,0,0,0-7.619-9.6V15.036a2.286,2.286,0,1,0-4.571,0V16.1A9.806,9.806,0,0,0,6.1,25.7v8.381L3.048,37.131v1.524h25.9V37.131L25.9,34.083ZM16,43.226h.61A2.65,2.65,0,0,0,18.743,41.4a2.871,2.871,0,0,0,.3-1.219h-6.1A3.057,3.057,0,0,0,16,43.226Z" transform="translate(0 -12.75)"/>
    </g>
  </g>
</svg>
