<svg xmlns="http://www.w3.org/2000/svg" viewBox="3568 2649.361 39 37.813">
  <defs>
    <style>
      .cls-1 {
        fill: #555;
      }
    </style>
  </defs>
  <g id="Group_176" data-name="Group 176" transform="translate(2135 2527.361)">
    <g id="headphones" transform="translate(1433 122)">
      <g id="Group_60" data-name="Group 60" transform="translate(18.998 23.858)">
        <path id="Path_81" data-name="Path 81" class="cls-1" d="M31.7,43.1V39.773a.651.651,0,0,0-1.3,0V43.1a.651.651,0,0,0,1.3,0Z" transform="translate(-30.397 -39.122)"/>
      </g>
      <g id="Group_61" data-name="Group 61" transform="translate(12.585 26.283)">
        <path id="Path_82" data-name="Path 82" class="cls-1" d="M23.333,46.724a.651.651,0,0,0,.085-.917l-2.13-2.569a.651.651,0,1,0-1,.832l2.13,2.569a.652.652,0,0,0,.917.085Z" transform="translate(-20.136 -43.002)"/>
      </g>
      <g id="Group_62" data-name="Group 62" transform="translate(23.061 26.835)">
        <path id="Path_83" data-name="Path 83" class="cls-1" d="M37.964,47.169l2.569-2.13a.651.651,0,0,0-.832-1l-2.569,2.13a.651.651,0,0,0,.832,1Z" transform="translate(-36.897 -43.886)"/>
      </g>
      <g id="Group_63" data-name="Group 63" transform="translate(0 0)">
        <path id="Path_84" data-name="Path 84" class="cls-1" d="M36.861,14.2a.641.641,0,0,0,.029-.143V12.188a.642.642,0,0,0-.071-.283.634.634,0,0,0-.076-.337l-.783-1.357A18.574,18.574,0,0,0,19.919.95H19.71A18.576,18.576,0,0,0,3.669,10.211l-.953,1.651a.649.649,0,0,0-.088.326V13.82A5.739,5.739,0,0,0,0,18.635v5.078a5.752,5.752,0,0,0,5.746,5.746H8.534a1.955,1.955,0,0,0,1.953-1.953V14.841a1.955,1.955,0,0,0-1.953-1.953H5.746a5.66,5.66,0,0,0-1.814.322v-.848l.864-1.5a17.273,17.273,0,0,1,14.915-8.61h.209a17.267,17.267,0,0,1,14.913,8.611l.758,1.314s0,.007,0,.011V13.4a5.7,5.7,0,0,0-2.334-.507H30.466a1.955,1.955,0,0,0-1.953,1.953V27.507a1.955,1.955,0,0,0,1.953,1.953h2.788a5.685,5.685,0,0,0,1.5-.224l-3.092,5.35a2.313,2.313,0,0,1-2,1.151H24.425a.626.626,0,0,0-.324.1,2.358,2.358,0,0,0-2.29-1.821H17.488a2.375,2.375,0,0,0,0,4.749h4.323A2.354,2.354,0,0,0,24.1,36.937a.636.636,0,0,0,.329.1h5.243a3.616,3.616,0,0,0,3.123-1.8L36.743,28.4a.629.629,0,0,0,.071-.209A5.715,5.715,0,0,0,39,23.714V18.636A5.717,5.717,0,0,0,36.861,14.2ZM1.3,23.713V18.635a4.438,4.438,0,0,1,3.809-4.381v13.8c0,.015.008.027.009.042A4.437,4.437,0,0,1,1.3,23.713Zm7.883-8.873V27.507a.652.652,0,0,1-.651.651H6.392a.6.6,0,0,0,.021-.106V14.24c0-.018-.009-.033-.01-.049H8.534a.652.652,0,0,1,.651.651ZM16.433,36.37a1.056,1.056,0,0,1,1.056-1.056h.234c0,.01-.006.018-.006.028v2.117h-.229A1.063,1.063,0,0,1,16.433,36.37Zm5.378,1.09H19.019V35.343c0-.01,0-.018-.006-.028h2.8a1.073,1.073,0,0,1,0,2.145Zm8-9.953V14.841a.652.652,0,0,1,.651-.651H32.6c0,.018-.01.032-.01.049V28.051a.6.6,0,0,0,.021.106H30.465a.651.651,0,0,1-.651-.65ZM37.7,23.713a4.437,4.437,0,0,1-3.818,4.381c0-.015.009-.027.009-.042v-13.8A4.438,4.438,0,0,1,37.7,18.635Z" transform="translate(0 -0.95)"/>
      </g>
    </g>
  </g>
</svg>
