<svg xmlns="http://www.w3.org/2000/svg" viewBox="0 0 40 33.705">
  <defs>
    <style>
      .cls-1 {
        fill: #a5a5a5;
      }
    </style>
  </defs>
  <g id="bulleted-list" transform="translate(0 -2.833)">
    <g id="Group_1447" data-name="Group 1447" transform="translate(0 2.833)">
      <path id="Path_3055" data-name="Path 3055" class="cls-1" d="M7.315,2.833H1.944A1.947,1.947,0,0,0,0,4.777v5.37a1.947,1.947,0,0,0,1.944,1.944h5.37a1.947,1.947,0,0,0,1.944-1.944V4.777A1.947,1.947,0,0,0,7.315,2.833Zm.278,7.315a.278.278,0,0,1-.278.278H1.944a.278.278,0,0,1-.278-.278V4.777A.278.278,0,0,1,1.944,4.5h5.37a.278.278,0,0,1,.278.278Z" transform="translate(0 -2.833)"/>
      <path id="Path_3056" data-name="Path 3056" class="cls-1" d="M36.871,2.833H12.61a1.947,1.947,0,0,0-1.944,1.944v5.37a1.947,1.947,0,0,0,1.944,1.944H36.87a1.947,1.947,0,0,0,1.944-1.944V4.777A1.945,1.945,0,0,0,36.871,2.833Zm.277,7.315a.277.277,0,0,1-.278.278H12.61a.278.278,0,0,1-.278-.278V4.777A.278.278,0,0,1,12.61,4.5H36.87a.277.277,0,0,1,.278.278Z" transform="translate(1.185 -2.833)"/>
      <path id="Path_3057" data-name="Path 3057" class="cls-1" d="M36.871,13.833H12.61a1.947,1.947,0,0,0-1.944,1.944v5.37a1.947,1.947,0,0,0,1.944,1.944H36.87a1.947,1.947,0,0,0,1.944-1.944v-5.37A1.945,1.945,0,0,0,36.871,13.833Zm.277,7.315a.276.276,0,0,1-.278.278H12.61a.277.277,0,0,1-.278-.278v-5.37a.278.278,0,0,1,.278-.278H36.87a.277.277,0,0,1,.278.278Z" transform="translate(1.185 -1.61)"/>
      <path id="Path_3058" data-name="Path 3058" class="cls-1" d="M36.871,24.833H12.61a1.947,1.947,0,0,0-1.944,1.944v5.37a1.947,1.947,0,0,0,1.944,1.944H36.87a1.947,1.947,0,0,0,1.944-1.944v-5.37A1.945,1.945,0,0,0,36.871,24.833Zm.277,7.315a.276.276,0,0,1-.278.278H12.61a.277.277,0,0,1-.278-.278v-5.37a.278.278,0,0,1,.278-.278H36.87a.277.277,0,0,1,.278.278Z" transform="translate(1.185 -0.388)"/>
      <path id="Path_3059" data-name="Path 3059" class="cls-1" d="M7.315,13.833H1.944A1.947,1.947,0,0,0,0,15.777v5.37a1.947,1.947,0,0,0,1.944,1.944h5.37a1.947,1.947,0,0,0,1.944-1.944v-5.37A1.947,1.947,0,0,0,7.315,13.833Zm.278,7.315a.277.277,0,0,1-.278.278H1.944a.277.277,0,0,1-.278-.278v-5.37a.278.278,0,0,1,.278-.278h5.37a.278.278,0,0,1,.278.278Z" transform="translate(0 -1.61)"/>
      <path id="Path_3060" data-name="Path 3060" class="cls-1" d="M7.315,24.833H1.944A1.947,1.947,0,0,0,0,26.777v5.37a1.947,1.947,0,0,0,1.944,1.944h5.37a1.947,1.947,0,0,0,1.944-1.944v-5.37A1.947,1.947,0,0,0,7.315,24.833Zm.278,7.315a.277.277,0,0,1-.278.278H1.944a.277.277,0,0,1-.278-.278v-5.37a.278.278,0,0,1,.278-.278h5.37a.278.278,0,0,1,.278.278Z" transform="translate(0 -0.388)"/>
    </g>
  </g>
</svg>
