<svg xmlns="http://www.w3.org/2000/svg" viewBox="0 0 40 37.957">
  <defs>
    <style>
      .cls-1 {
        fill: #a5a5a5;
      }
    </style>
  </defs>
  <g id="refund" transform="translate(0 -13.076)">
    <g id="Group_317" data-name="Group 317" transform="translate(4.414 37.917)">
      <g id="Group_316" data-name="Group 316" transform="translate(0 0)">
        <path id="Path_365" data-name="Path 365" class="cls-1" d="M87.5,338.063,82.5,333.07a6.932,6.932,0,0,0-9.792,0l-2.007,2.007-5.679-.043a2.2,2.2,0,0,0-1.572.638,2.249,2.249,0,0,0-.248.29l-2.892-2.892a2.237,2.237,0,0,0-3.09-.1,2.2,2.2,0,0,0-.726,1.589,2.228,2.228,0,0,0,.649,1.62l1.141,1.141a.648.648,0,1,0,.916-.916l-1.141-1.141a.921.921,0,0,1,.033-1.334.954.954,0,0,1,1.3.063l3.4,3.4h0a2.237,2.237,0,0,0,2.2,2.1l5.932.064h0a.665.665,0,0,0,.648-.663.657.657,0,0,0-.643-.663L65,338.177a.923.923,0,0,1,.014-1.847l5.77.043a.647.647,0,0,0,.623-.168l2.219-2.219a5.634,5.634,0,0,1,7.959,0l4.993,4.993a.648.648,0,0,0,.916-.916Z" transform="translate(-56.498 -331.046)"/>
      </g>
    </g>
    <g id="Group_319" data-name="Group 319" transform="translate(8.788 45.851)">
      <g id="Group_318" data-name="Group 318" transform="translate(0 0)">
        <path id="Path_366" data-name="Path 366" class="cls-1" d="M134.117,436.676l-2.774-2.773a.651.651,0,0,0-.585-.181l-5.485,1.093h-9.653l-2.029-2.025a.649.649,0,0,0-.916.919l2.219,2.215a.645.645,0,0,0,.458.186h9.985a.646.646,0,0,0,.127-.009l5.207-1.039,2.528,2.53a.648.648,0,1,0,.917-.916Z" transform="translate(-112.486 -432.601)"/>
      </g>
    </g>
    <g id="Group_321" data-name="Group 321" transform="translate(0 13.076)">
      <g id="Group_320" data-name="Group 320" transform="translate(0 0)">
        <path id="Path_367" data-name="Path 367" class="cls-1" d="M39.4,13.076H33.866a.648.648,0,0,0,0,1.3H38.7V35.193H1.3V14.372H31.1a.648.648,0,0,0,0-1.3H.691a.651.651,0,0,0-.691.6V35.8a.724.724,0,0,0,.691.691H39.4A.651.651,0,0,0,40,35.8V13.681A.577.577,0,0,0,39.4,13.076Z" transform="translate(0 -13.076)"/>
      </g>
    </g>
    <g id="Group_323" data-name="Group 323" transform="translate(2.765 15.841)">
      <g id="Group_322" data-name="Group 322" transform="translate(0 0)">
        <path id="Path_368" data-name="Path 368" class="cls-1" d="M69.231,52.567a3.475,3.475,0,0,1-3.488-3.477.621.621,0,0,0-.637-.626H40.224a.63.63,0,0,0-.648.626,3.512,3.512,0,0,1-3.521,3.488.658.658,0,0,0-.67.637v8.294a.667.667,0,0,0,.67.648,3.531,3.531,0,0,1,3.51,3.521.676.676,0,0,0,.659.67H65.105a.667.667,0,0,0,.648-.67,3.494,3.494,0,0,1,3.477-3.51.639.639,0,0,0,.626-.659V53.215A.63.63,0,0,0,69.231,52.567Zm-.67,8.337A4.827,4.827,0,0,0,64.5,65.05H40.828A4.827,4.827,0,0,0,36.682,60.9V53.819a4.827,4.827,0,0,0,4.146-4.06H64.5a4.827,4.827,0,0,0,4.06,4.06Z" transform="translate(-35.386 -48.463)"/>
      </g>
    </g>
    <g id="Group_325" data-name="Group 325" transform="translate(16.587 17.871)">
      <g id="Group_324" data-name="Group 324" transform="translate(0 0)">
        <path id="Path_369" data-name="Path 369" class="cls-1" d="M217.156,80.713h-.778V77.17h2.16a.648.648,0,0,0,0-1.3h-2.16V75.1a.648.648,0,1,0-1.3,0v.778h-.691a2.034,2.034,0,0,0-2.073,1.987v2.073a2.107,2.107,0,0,0,2.073,2.073h.691v3.542h-2.073a.648.648,0,0,0,0,1.3h2.073v.691a.648.648,0,1,0,1.3,0v-.691h.778a2.034,2.034,0,0,0,1.987-2.073V82.7A1.959,1.959,0,0,0,217.156,80.713Zm-2.073,0h-.691a.811.811,0,0,1-.778-.778V77.862a.738.738,0,0,1,.778-.691h.691Zm2.765,4.06a.738.738,0,0,1-.691.778h-.778V82.008h.778a.664.664,0,0,1,.691.691Z" transform="translate(-212.318 -74.449)"/>
      </g>
    </g>
    <g id="Group_327" data-name="Group 327" transform="translate(26.998 22.018)">
      <g id="Group_326" data-name="Group 326">
        <path id="Path_370" data-name="Path 370" class="cls-1" d="M348.293,127.53a2.721,2.721,0,1,0,2.721,2.721A2.725,2.725,0,0,0,348.293,127.53Zm0,4.147a1.425,1.425,0,1,1,1.425-1.425A1.427,1.427,0,0,1,348.293,131.677Z" transform="translate(-345.572 -127.53)"/>
      </g>
    </g>
    <g id="Group_329" data-name="Group 329" transform="translate(7.646 22.018)">
      <g id="Group_328" data-name="Group 328">
        <path id="Path_371" data-name="Path 371" class="cls-1" d="M100.587,127.53a2.721,2.721,0,1,0,2.721,2.721A2.724,2.724,0,0,0,100.587,127.53Zm0,4.147a1.425,1.425,0,1,1,1.425-1.425A1.427,1.427,0,0,1,100.587,131.677Z" transform="translate(-97.866 -127.53)"/>
      </g>
    </g>
    <g id="Group_331" data-name="Group 331" transform="translate(27.689 19.296)">
      <g id="Group_330" data-name="Group 330" transform="translate(0 0)">
        <path id="Path_372" data-name="Path 372" class="cls-1" d="M357.831,92.7h-2.765a.648.648,0,1,0,0,1.3h2.765a.648.648,0,0,0,0-1.3Z" transform="translate(-354.418 -92.696)"/>
      </g>
    </g>
    <g id="Group_333" data-name="Group 333" transform="translate(27.689 28.972)">
      <g id="Group_332" data-name="Group 332">
        <path id="Path_373" data-name="Path 373" class="cls-1" d="M357.831,216.549h-2.765a.648.648,0,1,0,0,1.3h2.765a.648.648,0,0,0,0-1.3Z" transform="translate(-354.418 -216.549)"/>
      </g>
    </g>
    <g id="Group_335" data-name="Group 335" transform="translate(8.337 19.296)">
      <g id="Group_334" data-name="Group 334" transform="translate(0 0)">
        <path id="Path_374" data-name="Path 374" class="cls-1" d="M110.125,92.7H107.36a.648.648,0,1,0,0,1.3h2.765a.648.648,0,0,0,0-1.3Z" transform="translate(-106.712 -92.696)"/>
      </g>
    </g>
    <g id="Group_337" data-name="Group 337" transform="translate(8.337 28.972)">
      <g id="Group_336" data-name="Group 336">
        <path id="Path_375" data-name="Path 375" class="cls-1" d="M110.125,216.549H107.36a.648.648,0,1,0,0,1.3h2.765a.648.648,0,0,0,0-1.3Z" transform="translate(-106.712 -216.549)"/>
      </g>
    </g>
  </g>
</svg>
