<svg xmlns="http://www.w3.org/2000/svg" viewBox="0 0 20 15.234">
  <defs>
    <style>
      .cls-1 {
        fill: #555;
      }
    </style>
  </defs>
  <g id="email" transform="translate(0 -61)">
    <g id="Group_1168" data-name="Group 1168" transform="translate(0 61)">
      <path id="Path_1958" data-name="Path 1958" class="cls-1" d="M18.242,61H1.758A1.761,1.761,0,0,0,0,62.758V74.477a1.761,1.761,0,0,0,1.758,1.758H18.242A1.761,1.761,0,0,0,20,74.477V62.758A1.761,1.761,0,0,0,18.242,61ZM18,62.172l-7.962,7.962L2.006,62.172ZM1.172,74.234V62.995l5.644,5.6ZM2,75.063l5.647-5.647,1.979,1.962a.586.586,0,0,0,.827,0l1.929-1.929L18,75.063Zm16.828-.829-5.617-5.617L18.828,63Z" transform="translate(0 -61)"/>
    </g>
  </g>
</svg>
