<svg xmlns="http://www.w3.org/2000/svg" viewBox="1108 674 16 8.96">
  <defs>
    <style>
      .cls-1 {
        opacity: 0.748;
      }

      .cls-2 {
        fill: #707070;
      }
    </style>
  </defs>
  <g id="dark-eye" class="cls-1" transform="translate(1108 654.1)">
    <path id="Path_16" data-name="Path 16" class="cls-2" d="M8,20.9c-5.249,0-8,3.867-8,4.48s2.751,4.48,8,4.48,8-3.867,8-4.48S13.248,20.9,8,20.9Zm0,7.926a3.448,3.448,0,1,1,0-6.892,3.448,3.448,0,1,1,0,6.892ZM9.778,25.38A1.779,1.779,0,1,1,8,23.657c.531,0-.326,1.366,0,1.723C8.277,25.684,9.778,24.943,9.778,25.38Z" transform="translate(0 -1)"/>
  </g>
</svg>
