<svg id="Group_1202" data-name="Group 1202" xmlns="http://www.w3.org/2000/svg" viewBox="0 0 43.2 43.2">
  <defs>
    <style>
      .cls-1 {
        fill: #a5a5a5;
      }

      .cls-2, .cls-3 {
        fill: none;
        stroke: #a5a5a5;
        stroke-miterlimit: 10;
        stroke-width: 1.2px;
      }

      .cls-2 {
        stroke-linecap: round;
        stroke-linejoin: round;
      }
    </style>
  </defs>
  <g id="Group_346" data-name="Group 346">
    <path id="Path_339" data-name="Path 339" class="cls-1" d="M22.3,11.6H20.1a3.543,3.543,0,0,0-3.5,3.5V17a.756.756,0,0,1-.1.4l-.1.2a2.92,2.92,0,0,0-.2.9v1.3a1.974,1.974,0,0,0,.6,1.4.758.758,0,0,1,.2.4,5.535,5.535,0,0,0,1,2.2v.9l-4,2.4a3.282,3.282,0,0,0-1.5,2.7v.9a1.11,1.11,0,0,0,1.1,1.1H28.5a1.11,1.11,0,0,0,1.1-1.1v-.9a3.282,3.282,0,0,0-1.5-2.7l-4-2.4v-.9a4.874,4.874,0,0,0,1-2.2.52.52,0,0,1,.2-.4,1.974,1.974,0,0,0,.6-1.4V18.5a2.92,2.92,0,0,0-.2-.9l-.1-.1c-.1-.1-.1-.2-.1-.4V15.2A3.114,3.114,0,0,0,22.3,11.6ZM19.1,30.5H13.7v-.9a2.062,2.062,0,0,1,1-1.7l2.1-1.3,1.5,1.2a2.1,2.1,0,0,0,1.1.4h.1l.4.6Zm.7-3.6a.608.608,0,0,1-.8,0L17.9,26l.9-.5.1-.1,1.4,1Zm.6,3.6.6-1.1h.4l.6,1.1Zm.2-2.8.6-.6.6.6-.3.5H21Zm7.1.2a2.062,2.062,0,0,1,1,1.7v.9H23.3l-.9-1.7.4-.6h.1a1.5,1.5,0,0,0,1.1-.4l1.5-1.2ZM24.5,26l-1.2.9a.608.608,0,0,1-.8,0l-.5-.4,1.5-1,.1.1Zm.5-6.4a1.421,1.421,0,0,1-.2.6,1.389,1.389,0,0,0-.5,1,5.076,5.076,0,0,1-.9,1.8,1.421,1.421,0,0,0-.2.6v.7h-.1l-2,1.4-1.9-1.4v-.8a1.421,1.421,0,0,0-.2-.6,6.079,6.079,0,0,1-.9-1.8,3.128,3.128,0,0,0-.5-1,1.072,1.072,0,0,1-.2-.6V18.2a.756.756,0,0,1,.1-.4l.1-.2a2.92,2.92,0,0,0,.2-.9V14.8a2.263,2.263,0,0,1,2.3-2.3h2.2a2.326,2.326,0,0,1,2.3,2.3v1.9a2.92,2.92,0,0,0,.2.9l.1.2c.1.1.1.2.1.4v1.4Z"/>
  </g>
  <path id="Path_340" data-name="Path 340" class="cls-2" d="M4.4,15.6A17.714,17.714,0,0,1,15.1,4.9"/>
  <path id="Path_341" data-name="Path 341" class="cls-2" d="M15.1,38.5A17.969,17.969,0,0,1,4.4,27.8"/>
  <path id="Path_342" data-name="Path 342" class="cls-2" d="M38.1,27.8A17.969,17.969,0,0,1,27.4,38.5"/>
  <path id="Path_343" data-name="Path 343" class="cls-2" d="M27.3,4.8A18.4,18.4,0,0,1,38.1,15.5"/>
  <circle id="Ellipse_70" data-name="Ellipse 70" class="cls-3" cx="3.8" cy="3.8" r="3.8" transform="translate(0.6 17.8)"/>
  <circle id="Ellipse_71" data-name="Ellipse 71" class="cls-3" cx="3.8" cy="3.8" r="3.8" transform="translate(35 17.8)"/>
  <circle id="Ellipse_72" data-name="Ellipse 72" class="cls-3" cx="3.8" cy="3.8" r="3.8" transform="translate(17.4 0.6)"/>
  <circle id="Ellipse_73" data-name="Ellipse 73" class="cls-3" cx="3.8" cy="3.8" r="3.8" transform="translate(17.4 35)"/>
</svg>
