<svg xmlns="http://www.w3.org/2000/svg" viewBox="0 0 40 40">
  <defs>
    <style>
      .cls-1 {
        fill: #a5a5a5;
      }
    </style>
  </defs>
  <g id="Group_1247" data-name="Group 1247" transform="translate(-40 -679)">
    <g id="target-4" transform="translate(40 679)">
      <path id="Path_2340" data-name="Path 2340" class="cls-1" d="M38,0H2A2,2,0,0,0,0,2V38a2,2,0,0,0,2,2H38a2,2,0,0,0,2-2V2A2,2,0,0,0,38,0Zm.667,38a.666.666,0,0,1-.667.667H2A.666.666,0,0,1,1.333,38V2A.666.666,0,0,1,2,1.333H38A.666.666,0,0,1,38.667,2Zm0,0"/>
      <path id="Path_2341" data-name="Path 2341" class="cls-1" d="M95.083,95.75a.666.666,0,0,1,.667-.667h6V93.75h-6a2,2,0,0,0-2,2v6h1.333Zm0,0" transform="translate(-89.75 -89.75)"/>
      <path id="Path_2342" data-name="Path 2342" class="cls-1" d="M662.917,662.25a.667.667,0,0,1-.667.667h-6v1.333h6a2,2,0,0,0,2-2v-6h-1.333Zm0,0" transform="translate(-628.25 -628.25)"/>
      <path id="Path_2343" data-name="Path 2343" class="cls-1" d="M95.083,662.25v-6H93.75v6a2,2,0,0,0,2,2h6v-1.333h-6A.666.666,0,0,1,95.083,662.25Zm0,0" transform="translate(-89.75 -628.25)"/>
      <path id="Path_2344" data-name="Path 2344" class="cls-1" d="M662.25,93.75h-6v1.333h6a.666.666,0,0,1,.667.667v6h1.333v-6A2,2,0,0,0,662.25,93.75Zm0,0" transform="translate(-628.25 -89.75)"/>
      <path id="Path_2345" data-name="Path 2345" class="cls-1" d="M211.5,200.167v-1.333a2,2,0,0,0-2-2h-6.667a.666.666,0,0,1-.667-.667V189.5a2,2,0,0,0-2-2h-1.333a2,2,0,0,0-2,2v6.667a.666.666,0,0,1-.667.667H189.5a2,2,0,0,0-2,2v1.333a2,2,0,0,0,2,2h6.667a.666.666,0,0,1,.667.667V209.5a2,2,0,0,0,2,2h1.333a2,2,0,0,0,2-2v-6.667a.666.666,0,0,1,.667-.667H209.5A2,2,0,0,0,211.5,200.167Zm-10.667,2.667V209.5a.666.666,0,0,1-.667.667h-1.333a.666.666,0,0,1-.667-.667v-6.667a2,2,0,0,0-2-2H189.5a.666.666,0,0,1-.667-.667v-1.333a.666.666,0,0,1,.667-.667h6.667a2,2,0,0,0,2-2V189.5a.666.666,0,0,1,.667-.667h1.333a.666.666,0,0,1,.667.667v6.667a2,2,0,0,0,2,2H209.5a.666.666,0,0,1,.667.667v1.333a.666.666,0,0,1-.667.667h-6.667A2,2,0,0,0,200.833,202.833Zm0,0" transform="translate(-179.5 -179.5)"/>
    </g>
  </g>
</svg>
