<svg xmlns="http://www.w3.org/2000/svg" viewBox="0 0 41.001 40.327">
  <defs>
    <style>
      .cls-1 {
        fill: none;
        stroke: #a5a5a5;
      }
    </style>
  </defs>
  <g id="hospital-with-three-floors" transform="translate(0.501 0.06)">
    <g id="Group_49" data-name="Group 49" transform="translate(0 0.44)">
      <path id="Path_65" data-name="Path 65" class="cls-1" d="M24.176,44.822H23.6a.577.577,0,0,0-.577.578v.791a.577.577,0,0,0,.577.579h.577a.578.578,0,0,0,.577-.579V45.4A.578.578,0,0,0,24.176,44.822Z" transform="translate(-5.417 -10.883)"/>
      <path id="Path_66" data-name="Path 66" class="cls-1" d="M28.176,44.822H27.6a.578.578,0,0,0-.577.578v.791a.578.578,0,0,0,.577.579h.577a.578.578,0,0,0,.577-.579V45.4A.578.578,0,0,0,28.176,44.822Z" transform="translate(-6.358 -10.883)"/>
      <path id="Path_67" data-name="Path 67" class="cls-1" d="M37.848.44H2.151A2.123,2.123,0,0,0,0,2.729L2.24,37.478a2.48,2.48,0,0,0,2.442,2.289H15.524l-.618-6.248a2.037,2.037,0,0,1,2.068-2.283h6.2a2.036,2.036,0,0,1,2.068,2.283l-.619,6.248h10.69a2.48,2.48,0,0,0,2.442-2.289L39.995,2.729A2.122,2.122,0,0,0,37.848.44ZM28.82,13.9a.83.83,0,0,1,.83-.831h2.568a.831.831,0,0,1,.83.831v3.569a.831.831,0,0,1-.83.832H29.65a.83.83,0,0,1-.83-.832ZM11.18,35.714a.83.83,0,0,1-.831.83H7.781a.83.83,0,0,1-.83-.83V32.143a.83.83,0,0,1,.83-.83h2.568a.831.831,0,0,1,.831.83v3.571Zm0-9.42a.83.83,0,0,1-.831.831H7.781a.829.829,0,0,1-.83-.831v-3.57a.83.83,0,0,1,.83-.831h2.568a.831.831,0,0,1,.831.831v3.57Zm0-8.827a.831.831,0,0,1-.831.832H7.781a.831.831,0,0,1-.83-.832V13.9a.831.831,0,0,1,.83-.831h2.568a.832.832,0,0,1,.831.831v3.569Zm7.293,8.827a.829.829,0,0,1-.83.831H15.074a.829.829,0,0,1-.83-.831v-3.57a.831.831,0,0,1,.83-.831h2.568a.83.83,0,0,1,.83.831Zm0-8.827a.831.831,0,0,1-.83.832H15.074a.831.831,0,0,1-.83-.832V13.9a.831.831,0,0,1,.83-.831h2.568a.831.831,0,0,1,.83.831Zm2.7-9.7V9.941a.259.259,0,0,1-.26.259H19.09a.259.259,0,0,1-.262-.259V7.766a.257.257,0,0,0-.259-.259H16.395a.26.26,0,0,1-.259-.26V5.427a.258.258,0,0,1,.259-.259h2.174a.259.259,0,0,0,.259-.262V2.732a.259.259,0,0,1,.262-.259h1.819a.259.259,0,0,1,.26.259V4.907a.26.26,0,0,0,.26.262H23.6a.259.259,0,0,1,.26.259v1.82a.26.26,0,0,1-.26.26H21.429A.258.258,0,0,0,21.169,7.766Zm4.587,18.528a.83.83,0,0,1-.832.831H22.356a.829.829,0,0,1-.83-.831v-3.57a.83.83,0,0,1,.83-.831h2.568a.831.831,0,0,1,.832.831Zm0-8.827a.831.831,0,0,1-.832.832H22.356a.83.83,0,0,1-.83-.832V13.9a.83.83,0,0,1,.83-.831h2.568a.831.831,0,0,1,.832.831Zm3.064,5.257a.83.83,0,0,1,.83-.831h2.568a.83.83,0,0,1,.83.831v3.57a.829.829,0,0,1-.83.831H29.65a.829.829,0,0,1-.83-.831Zm4.23,12.99a.831.831,0,0,1-.832.83H29.651a.829.829,0,0,1-.83-.83V32.143a.829.829,0,0,1,.83-.83h2.567a.831.831,0,0,1,.832.83Z" transform="translate(0 -0.44)"/>
    </g>
  </g>
</svg>
