<svg xmlns="http://www.w3.org/2000/svg" viewBox="2175 3064 40 39.74">
  <defs>
    <style>
      .cls-1 {
        fill: #a5a5a5;
      }
    </style>
  </defs>
  <g id="Group_52" data-name="Group 52" transform="translate(2135 2566)">
    <path id="Path_29" data-name="Path 29" class="cls-1" d="M231.166,77.1V75.615c.512.037.7.271.878.271.22,0,.322-.278.322-.417,0-.358-.7-.512-1.2-.527v-.2c0-.088-.11-.168-.219-.168a.193.193,0,0,0-.212.168v.212a1.358,1.358,0,0,0-1.39,1.361c0,.937.732,1.2,1.39,1.434v1.719c-.746-.058-.944-.571-1.185-.571-.183,0-.337.241-.337.417,0,.359.615.849,1.522.863h0v.227a.193.193,0,0,0,.212.168c.11,0,.219-.081.219-.168v-.249a1.417,1.417,0,0,0,1.332-1.507C232.5,77.656,231.8,77.335,231.166,77.1Zm-.388-.139c-.388-.146-.7-.3-.7-.717,0-.38.293-.563.7-.615Zm.344,2.5V77.913a.856.856,0,0,1,.644.82A.7.7,0,0,1,231.122,79.456Z" transform="translate(-170.305 429.424)"/>
    <path id="Path_28" data-name="Path 28" class="cls-1" d="M39.509,14,26.286,5.5a.568.568,0,0,0-.615.956L38.7,14.834H35.663L20.832,5.292a1.54,1.54,0,0,0-1.663,0L4.337,14.834H1.3L20,2.8l2.648,1.7a.568.568,0,1,0,.615-.956l-2.648-1.7a1.138,1.138,0,0,0-1.228,0L.492,14a1.069,1.069,0,0,0,.578,1.968H3.936v3.674a.942.942,0,0,0,.747.921v1a.942.942,0,0,0,.941.941H5.7v6.962a.568.568,0,1,0,1.136,0v-7.53a.568.568,0,0,0-.568-.568H5.819v-.784H9.844v.784H9.393a.568.568,0,0,0-.568.568V34.492a.568.568,0,0,0,.568.568h.451v.853H5.819V35.06H6.27a.568.568,0,0,0,.568-.568V33.04a.568.568,0,0,0-1.136,0v.884H5.624a.942.942,0,0,0-.941.941v1a.942.942,0,0,0-.747.921v1.147H1.923A1.14,1.14,0,0,0,.784,39.072v1.2a1.14,1.14,0,0,0,1.139,1.139H38.077a1.14,1.14,0,0,0,1.139-1.139v-1.2a1.14,1.14,0,0,0-1.139-1.139H36.065V36.785a.942.942,0,0,0-.747-.921v-1a.942.942,0,0,0-.941-.941H34.3V22.506h.078a.942.942,0,0,0,.941-.941v-1a.942.942,0,0,0,.747-.921V15.971h2.866A1.069,1.069,0,0,0,39.509,14ZM19.784,6.247a.4.4,0,0,1,.433,0l13.346,8.587H6.438ZM5.073,15.971H34.928v1.39H5.073ZM23.149,35.865v-1a.942.942,0,0,0-.941-.941H22.13V22.506h.078a.942.942,0,0,0,.941-.941v-1a.942.942,0,0,0,.747-.921V18.5h4.378v1.147a.942.942,0,0,0,.747.921v1a.942.942,0,0,0,.941.941h.078V33.924h-.078a.942.942,0,0,0-.941.941v1a.942.942,0,0,0-.747.921v1.147H23.9V36.785A.942.942,0,0,0,23.149,35.865Zm-12.169,0v-1a.942.942,0,0,0-.941-.941H9.961V22.506h.078a.942.942,0,0,0,.941-.941v-1a.942.942,0,0,0,.747-.921V18.5H16.1v1.147a.942.942,0,0,0,.747.921v1a.942.942,0,0,0,.941.941h.078V33.924h-.078a.942.942,0,0,0-.941.941v1a.942.942,0,0,0-.747.921v1.147H11.727V36.785A.942.942,0,0,0,10.98,35.865Zm10.582-.8h.451v.853H17.988V35.06h.451a.568.568,0,0,0,.568-.568V21.938a.568.568,0,0,0-.568-.568h-.451v-.784h4.024v.784h-.451a.568.568,0,0,0-.568.568V34.492A.568.568,0,0,0,21.562,35.06ZM17.42,19.449h-.179V18.5h5.518v.951H17.42Zm-.179,17.573a.568.568,0,0,0,.176.028h5.161a.567.567,0,0,0,.181-.03v.913H17.241ZM5.251,19.449H5.073V18.5h5.518v.951H5.251ZM5.073,37.021a.567.567,0,0,0,.179.029h5.161a.567.567,0,0,0,.179-.029v.912H5.073v-.912ZM38.08,39.072l0,1.2h0l-36.157,0,0-1.2ZM34.748,37.05a.568.568,0,0,0,.18-.03v.912H29.41v-.911a.566.566,0,0,0,.177.028Zm-4.14-15.68h-.451v-.784h4.024v.784h-.451a.568.568,0,0,0-.568.568V34.492a.568.568,0,0,0,.568.568h.451v.853H30.157V35.06h.451a.568.568,0,0,0,.568-.568V21.938A.568.568,0,0,0,30.608,21.37Zm4.321-1.921H29.41V18.5h5.518v.951Z" transform="translate(40 496.334)"/>
  </g>
</svg>
