<svg xmlns="http://www.w3.org/2000/svg" viewBox="0 0 20 27.162">
  <defs>
    <style>
      .cls-1, .cls-2 {
        fill: #2f2f2f;
      }

      .cls-3, .cls-4 {
        stroke: none;
      }

      .cls-4 {
        fill: #fff;
      }
    </style>
  </defs>
  <g id="Group_319" data-name="Group 319" transform="translate(-1343 -1027.4)">
    <g id="placeholder-filled-point" transform="translate(1343 1027.401)">
      <path id="Path_99" data-name="Path 99" class="cls-1" d="M22.883,0a10.011,10.011,0,0,0-10,10,9.755,9.755,0,0,0,.875,4.082c2.5,5.471,7.294,11.247,8.7,12.887a.557.557,0,0,0,.843,0c1.409-1.64,6.2-7.415,8.7-12.887A9.75,9.75,0,0,0,32.883,10,10.012,10.012,0,0,0,22.883,0Zm0,15.194A5.195,5.195,0,1,1,28.077,10,5.2,5.2,0,0,1,22.883,15.194Z" transform="translate(-12.883)"/>
    </g>
    <g id="Path_100" data-name="Path 100" class="cls-2" transform="translate(1348.217 1032.581)">
      <path class="cls-3" d="M 4.891079902648926 6.782159805297852 C 3.848330020904541 6.782159805297852 3 5.933829784393311 3 4.891079902648926 C 3 3.848330020904541 3.848330020904541 3 4.891079902648926 3 C 5.933829784393311 3 6.782159805297852 3.848330020904541 6.782159805297852 4.891079902648926 C 6.782159805297852 5.933829784393311 5.933829784393311 6.782159805297852 4.891079902648926 6.782159805297852 Z"/>
      <path class="cls-4" d="M 4.891079902648926 9.782159805297852 C 2.189809799194336 9.782159805297852 -9.735107653341402e-08 7.592350006103516 -9.735107653341402e-08 4.891079902648926 C -9.735107653341402e-08 2.189809799194336 2.189809799194336 -9.735107653341402e-08 4.891079902648926 -9.735107653341402e-08 C 7.592350006103516 -9.735107653341402e-08 9.782159805297852 2.189809799194336 9.782159805297852 4.891079902648926 C 9.782159805297852 7.592350006103516 7.592350006103516 9.782159805297852 4.891079902648926 9.782159805297852 Z"/>
    </g>
  </g>
</svg>
