<svg xmlns="http://www.w3.org/2000/svg" viewBox="0 0 20.402 21.924">
  <defs>
    <style>
      .cls-1 {
        fill: #2993ed;
        stroke: #2993ed;
        stroke-width: 0.4px;
      }
    </style>
  </defs>
  <g id="shopping-cart-2" transform="translate(-16.998 0.202)">
    <path id="Path_1956" data-name="Path 1956" class="cls-1" d="M22.9,14.171H34.759A2.446,2.446,0,0,0,37.2,11.729V6.687a.056.056,0,0,0,0-.027c0-.009,0-.022,0-.031s0-.018,0-.027a.282.282,0,0,1-.009-.031c0-.009,0-.018-.009-.027s0-.018-.009-.027a.215.215,0,0,1-.013-.031.1.1,0,0,0-.013-.022l-.013-.027c0-.009-.009-.013-.013-.022s-.013-.018-.018-.027a.078.078,0,0,0-.018-.022c0-.009-.013-.013-.018-.022s-.013-.013-.018-.022-.013-.013-.018-.018L37,6.284c-.009,0-.013-.013-.022-.018s-.018-.013-.027-.018l-.022-.013a.093.093,0,0,1-.027-.018L36.873,6.2l-.027-.013-.027-.013c-.009,0-.018,0-.027-.009a.082.082,0,0,0-.031-.009.192.192,0,0,1-.022,0,.1.1,0,0,0-.035,0s-.009,0-.018,0L21.657,4.073v-2.1a.272.272,0,0,0,0-.062.033.033,0,0,0,0-.018c0-.013,0-.027,0-.04s0-.022-.009-.035,0-.013,0-.022l-.013-.04s0-.013,0-.018a.132.132,0,0,0-.018-.035s0-.013-.009-.018a.093.093,0,0,0-.018-.027c0-.009-.009-.013-.013-.022s-.009-.013-.013-.022-.013-.018-.018-.027l-.013-.013-.027-.027-.013-.013a.192.192,0,0,0-.031-.027s-.013-.009-.018-.013-.018-.013-.027-.022a.408.408,0,0,0-.035-.022s-.009,0-.013-.009l-.058-.027L18.03.047a.6.6,0,1,0-.464,1.1L20.459,2.37V15.453a2.444,2.444,0,0,0,2.128,2.419,2.41,2.41,0,1,0,4.476,1.238,2.365,2.365,0,0,0-.332-1.216H32.1a2.377,2.377,0,0,0-.332,1.216A2.411,2.411,0,1,0,34.179,16.7H22.9a1.249,1.249,0,0,1-1.247-1.247V13.834A2.469,2.469,0,0,0,22.9,14.171Zm2.972,4.936a1.216,1.216,0,1,1-1.216-1.216A1.219,1.219,0,0,1,25.873,19.107Zm9.527,0a1.216,1.216,0,1,1-1.216-1.216A1.219,1.219,0,0,1,35.4,19.107Zm-.641-6.13H22.9a1.249,1.249,0,0,1-1.247-1.247V5.276L36.006,7.253v4.472A1.25,1.25,0,0,1,34.759,12.976Z" transform="translate(0 0)"/>
  </g>
</svg>
