<svg xmlns="http://www.w3.org/2000/svg" viewBox="2680 2648 40 33.984">
  <defs>
    <style>
      .cls-1 {
        fill: #de0a97;
      }
    </style>
  </defs>
  <g id="museum" transform="translate(2680 2618.235)">
    <g id="Group_46" data-name="Group 46" transform="translate(0 29.765)">
      <g id="Group_45" data-name="Group 45" transform="translate(0 0)">
        <path id="Path_45" data-name="Path 45" class="cls-1" d="M238.18,128.482h1.132a.808.808,0,0,0,0-1.617H238.18a.808.808,0,1,0,0,1.617Z" transform="translate(-213.385 -117.053)"/>
        <path id="Path_46" data-name="Path 46" class="cls-1" d="M39.833,60.96l-1.011-2.466a2.042,2.042,0,0,0-1.859-1.213h-.889V41.194h1.738a1.605,1.605,0,0,0,1.576-1.253,1.63,1.63,0,0,0-.889-1.819L21.683,30.159a3.94,3.94,0,0,0-3.436,0l-16.9,7.963a1.638,1.638,0,0,0,.687,3.112h1.7V57.322H3.009a2.042,2.042,0,0,0-1.859,1.213L.139,60.96a2.1,2.1,0,0,0,.2,1.9A1.983,1.983,0,0,0,2,63.749H37.973a1.983,1.983,0,0,0,1.657-.889A1.878,1.878,0,0,0,39.833,60.96ZM2.079,39.577l16.856-7.963a2.311,2.311,0,0,1,2.061,0l16.856,7.963H35.265a.811.811,0,0,0-.808.808c0,.081,0,.121.04.162,0,.04-.04.121-.04.162V57.282H31.223V46.045a3.234,3.234,0,1,0-6.467,0V57.322H23.139V46.045a3.234,3.234,0,1,0-6.467,0V57.322H15.054V46.045a3.234,3.234,0,0,0-6.467,0V57.322H5.353V41.194h15.8a.808.808,0,1,0,0-1.617Zm27.527,6.467V57.322H26.372V46.045a1.617,1.617,0,0,1,3.234,0Zm-8.084,0V57.322H18.288V46.045a1.617,1.617,0,0,1,3.234,0Zm-8.084,0V57.322H10.2V46.045a1.617,1.617,0,0,1,3.234,0ZM38.3,61.971c-.04.04-.162.2-.323.2H2a.334.334,0,0,1-.323-.2.4.4,0,0,1-.04-.4l1.011-2.385a.445.445,0,0,1,.4-.243H37a.445.445,0,0,1,.4.243l1.011,2.425A.629.629,0,0,1,38.3,61.971Z" transform="translate(0 -29.765)"/>
      </g>
    </g>
  </g>
</svg>
