<svg xmlns="http://www.w3.org/2000/svg" viewBox="0 0 36.759 36.16">
  <defs>
    <style>
      .cls-1 {
        fill: none;
        stroke: #7b88e1;
        stroke-width: 1.2px;
      }
    </style>
  </defs>
  <path id="Path_67" data-name="Path 67" class="cls-1" d="M33.645.44H1.912A1.887,1.887,0,0,0,0,2.475L1.992,33.364A2.2,2.2,0,0,0,4.162,35.4H13.8l-.549-5.554a1.811,1.811,0,0,1,1.839-2.029H20.6a1.81,1.81,0,0,1,1.839,2.029l-.55,5.554h9.5a2.2,2.2,0,0,0,2.17-2.035L35.553,2.475A1.886,1.886,0,0,0,33.645.44ZM25.619,12.4a.738.738,0,0,1,.738-.739H28.64a.739.739,0,0,1,.738.739v3.172a.738.738,0,0,1-.738.74H26.357a.738.738,0,0,1-.738-.74ZM9.938,31.8a.738.738,0,0,1-.739.738H6.917a.738.738,0,0,1-.738-.738V28.622a.738.738,0,0,1,.738-.738H9.2a.739.739,0,0,1,.739.738V31.8Zm0-8.374a.738.738,0,0,1-.739.739H6.917a.737.737,0,0,1-.738-.739V20.249a.738.738,0,0,1,.738-.739H9.2a.739.739,0,0,1,.739.739v3.173Zm0-7.847a.739.739,0,0,1-.739.74H6.917a.738.738,0,0,1-.738-.74V12.4a.739.739,0,0,1,.738-.739H9.2a.739.739,0,0,1,.739.739v3.172Zm6.483,7.847a.737.737,0,0,1-.738.739H13.4a.737.737,0,0,1-.738-.739V20.249a.739.739,0,0,1,.738-.739h2.283a.738.738,0,0,1,.738.739Zm0-7.847a.738.738,0,0,1-.738.74H13.4a.738.738,0,0,1-.738-.74V12.4a.739.739,0,0,1,.738-.739h2.283a.739.739,0,0,1,.738.739Zm2.4-8.624V8.885a.23.23,0,0,1-.231.23H16.97a.23.23,0,0,1-.232-.23V6.952a.228.228,0,0,0-.23-.23H14.574a.231.231,0,0,1-.23-.231V4.873a.23.23,0,0,1,.23-.23h1.933a.23.23,0,0,0,.23-.232V2.477a.23.23,0,0,1,.232-.23h1.617a.23.23,0,0,1,.231.23V4.411a.231.231,0,0,0,.231.232h1.933a.23.23,0,0,1,.231.23V6.491a.231.231,0,0,1-.231.231H19.049A.229.229,0,0,0,18.818,6.952ZM22.9,23.422a.738.738,0,0,1-.74.739H19.873a.737.737,0,0,1-.738-.739V20.249a.738.738,0,0,1,.738-.739h2.283a.738.738,0,0,1,.74.739Zm0-7.847a.739.739,0,0,1-.74.74H19.873a.738.738,0,0,1-.738-.74V12.4a.738.738,0,0,1,.738-.739h2.283a.739.739,0,0,1,.74.739Zm2.724,4.673a.738.738,0,0,1,.738-.739H28.64a.738.738,0,0,1,.738.739v3.173a.737.737,0,0,1-.738.739H26.357a.737.737,0,0,1-.738-.739ZM29.379,31.8a.738.738,0,0,1-.74.738H26.358a.737.737,0,0,1-.738-.738V28.622a.737.737,0,0,1,.738-.738H28.64a.739.739,0,0,1,.74.738Z" transform="translate(0.601 0.16)"/>
</svg>
