<svg xmlns="http://www.w3.org/2000/svg" viewBox="0 0 40 39.235">
  <defs>
    <style>
      .cls-1 {
        fill: #a5a5a5;
      }
    </style>
  </defs>
  <g id="placeholder-4" transform="translate(0 -0.585)">
    <path id="Path_301" data-name="Path 301" class="cls-1" d="M28.516,21.739a4.578,4.578,0,1,0-4.578-4.578A4.583,4.583,0,0,0,28.516,21.739Zm0-7.847a3.27,3.27,0,1,1-3.27,3.27A3.273,3.273,0,0,1,28.516,13.892Z" transform="translate(-8.284 -4.152)"/>
    <path id="Path_302" data-name="Path 302" class="cls-1" d="M32.838,24.78H28.155L30.148,21.9c3.763-5.016,3.219-13.262-1.165-17.645a12.54,12.54,0,0,0-17.735,0C6.865,8.641,6.32,16.887,10.069,21.883l2.006,2.9H7.162L0,39.821H40ZM11.13,21.118c-3.4-4.534-2.913-11.98,1.044-15.936a11.233,11.233,0,0,1,15.885,0c3.956,3.956,4.444,11.4,1.029,15.955L20.116,34.094l-6.45-9.314h0Zm-3.142,4.97h4.992l7.135,10.3,7.134-10.3h4.761l5.917,12.425H2.072Z"/>
  </g>
</svg>
