<svg xmlns="http://www.w3.org/2000/svg" viewBox="0 0 40 45.765">
  <defs>
    <style>
      .cls-1 {
        fill: #a5a5a5;
      }
    </style>
  </defs>
  <g id="insurance-3" transform="translate(-32.249 0)">
    <g id="Group_1249" data-name="Group 1249" transform="translate(44.162 10.87)">
      <g id="Group_1248" data-name="Group 1248" transform="translate(0)">
        <path id="Path_2346" data-name="Path 2346" class="cls-1" d="M176.2,132.206a4.21,4.21,0,0,0,1.626-3.323v-3.05a4.215,4.215,0,0,0-8.431,0v3.05a4.209,4.209,0,0,0,1.626,3.323,8.032,8.032,0,0,0-5.5,7.385v2.381a.672.672,0,0,0,.672.672H181.03a.672.672,0,0,0,.672-.672v-2.381A8.032,8.032,0,0,0,176.2,132.206Zm-5.235-7.489a2.872,2.872,0,0,1,5.518,1.117v.744a2.825,2.825,0,0,1-1.562-1.549.672.672,0,0,0-1.219-.081,3.889,3.889,0,0,1-2.963,1.7v-.815h0A2.852,2.852,0,0,1,170.969,124.717Zm-.226,4.167V128a5.541,5.541,0,0,0,3.461-1.547,3.705,3.705,0,0,0,2.283,1.512v.919a2.875,2.875,0,0,1-2.751,2.869l-.112,0h-.018l-.112,0A2.875,2.875,0,0,1,170.743,128.883Zm2.556,6.308h.633l.779,3.382-1.1,1-1.1-1Zm-.481-2.036c.051-.007.1-.015.154-.021h0c.1-.011.2-.02.3-.027l.047,0c.067,0,.135-.006.2-.008l.092,0,.092,0c.067,0,.135,0,.2.008l.047,0c.1.007.2.015.3.027h0c.052.006.1.014.154.021l-.356.693h-.883Zm7.542,8.144H166.871v-1.709a6.26,6.26,0,0,1,2.031-4.546,7.183,7.183,0,0,1,2.571-1.565l.581,1.129-.932,4.045a.672.672,0,0,0,.2.646l1.838,1.682a.672.672,0,0,0,.907,0l1.838-1.682a.672.672,0,0,0,.2-.646l-.932-4.045.581-1.128a7.186,7.186,0,0,1,2.571,1.565,6.259,6.259,0,0,1,2.031,4.545V141.3Z" transform="translate(-165.528 -121.618)"/>
      </g>
    </g>
    <g id="Group_1251" data-name="Group 1251" transform="translate(36.144 4.375)">
      <g id="Group_1250" data-name="Group 1250" transform="translate(0)">
        <path id="Path_2347" data-name="Path 2347" class="cls-1" d="M107.717,54.648a.672.672,0,0,0-.664-.567c-6.314,0-14.7-4.988-14.779-5.039a.672.672,0,0,0-.692,0c-.084.05-8.459,5.039-14.779,5.039a.672.672,0,0,0-.663.567,35.467,35.467,0,0,0-.317,5.078.672.672,0,0,0,.672.671h0a.672.672,0,0,0,.671-.673,38.132,38.132,0,0,1,.229-4.313A28.234,28.234,0,0,0,87.1,52.8a50.583,50.583,0,0,0,4.828-2.406A50.591,50.591,0,0,0,96.756,52.8a28.236,28.236,0,0,0,9.7,2.61,39.73,39.73,0,0,1-.632,12.457.672.672,0,1,0,1.311.292A40.006,40.006,0,0,0,107.717,54.648Z" transform="translate(-75.824 -48.945)"/>
      </g>
    </g>
    <g id="Group_1253" data-name="Group 1253" transform="translate(36.226 17.049)">
      <g id="Group_1252" data-name="Group 1252" transform="translate(0)">
        <path id="Path_2348" data-name="Path 2348" class="cls-1" d="M106.936,198.691a.672.672,0,0,0-.837.45,22.682,22.682,0,0,1-5.074,9.13,20.139,20.139,0,0,1-8.265,5.236,19.834,19.834,0,0,1-11.415-9.655,30.351,30.351,0,0,1-3.267-12.485.672.672,0,0,0-1.341.084,31.675,31.675,0,0,0,3.423,13.035,21.162,21.162,0,0,0,12.387,10.367.67.67,0,0,0,.424,0A21.522,21.522,0,0,0,102,209.191a24.007,24.007,0,0,0,5.381-9.663A.672.672,0,0,0,106.936,198.691Z" transform="translate(-76.737 -190.738)"/>
      </g>
    </g>
    <g id="Group_1255" data-name="Group 1255" transform="translate(32.249 -0.001)">
      <g id="Group_1254" data-name="Group 1254" transform="translate(0 0)">
        <path id="Path_2349" data-name="Path 2349" class="cls-1" d="M71.849,7a.672.672,0,0,0-.664-.567C63.232,6.428,52.7.159,52.595.1A.672.672,0,0,0,51.9.1C51.8.159,41.266,6.428,33.313,6.428A.672.672,0,0,0,32.649,7a49.975,49.975,0,0,0,.6,16.288,33.1,33.1,0,0,0,5.516,12.952,26.4,26.4,0,0,0,13.274,9.5.671.671,0,0,0,.424,0,26.4,26.4,0,0,0,13.274-9.5,33.1,33.1,0,0,0,5.516-12.952A49.963,49.963,0,0,0,71.849,7ZM69.936,23.009A31.774,31.774,0,0,1,64.652,35.44a25.037,25.037,0,0,1-12.4,8.944,25.041,25.041,0,0,1-12.391-8.927A31.74,31.74,0,0,1,34.57,23.046,50.141,50.141,0,0,1,33.9,7.761,34.87,34.87,0,0,0,46.137,4.5a62.87,62.87,0,0,0,6.112-3.052A62.844,62.844,0,0,0,58.361,4.5,34.874,34.874,0,0,0,70.6,7.761,50.072,50.072,0,0,1,69.936,23.009Z" transform="translate(-32.249 0.001)"/>
      </g>
    </g>
  </g>
</svg>
