<svg xmlns="http://www.w3.org/2000/svg" viewBox="0 0 40 29.377">
  <defs>
    <style>
      .cls-1 {
        fill: #a5a5a5;
      }
    </style>
  </defs>
  <g id="networking" transform="translate(0 -65)">
    <g id="Group_1446" data-name="Group 1446" transform="translate(0 65)">
      <g id="Group_1445" data-name="Group 1445" transform="translate(0 0)">
        <path id="Path_3047" data-name="Path 3047" class="cls-1" d="M160.537,73.809h-.221V70.884a5.884,5.884,0,1,0-11.767,0,.744.744,0,0,0,1.487,0,4.4,4.4,0,1,1,8.809,0v2.925H148.328a1.932,1.932,0,0,0-1.928,1.928V83.77a1.932,1.932,0,0,0,1.928,1.929h12.2a1.932,1.932,0,0,0,1.928-1.929V75.737A1.925,1.925,0,0,0,160.537,73.809Zm.441,9.953a.439.439,0,0,1-.441.441H148.328a.439.439,0,0,1-.441-.441V75.729a.439.439,0,0,1,.441-.441h12.2a.439.439,0,0,1,.441.441v8.033Z" transform="translate(-134.437 -65)"/>
        <path id="Path_3048" data-name="Path 3048" class="cls-1" d="M231.1,219.662a1.225,1.225,0,0,0-1.332.711,1.2,1.2,0,0,0,.4,1.479.257.257,0,0,1,.114.245v1.585h0a.617.617,0,0,0,.923.531.547.547,0,0,0,.294-.531h0V222.1a.273.273,0,0,1,.131-.261,1.166,1.166,0,0,0,.5-.989A1.237,1.237,0,0,0,231.1,219.662Z" transform="translate(-210.896 -207.004)"/>
        <path id="Path_3049" data-name="Path 3049" class="cls-1" d="M9.43,218.169H5.32a2.713,2.713,0,1,0,0,1.487H9.438a.746.746,0,0,0,.744-.744A.759.759,0,0,0,9.43,218.169Zm-6.717,1.969a1.226,1.226,0,1,1,1.226-1.226A1.224,1.224,0,0,1,2.713,220.139Z" transform="translate(0 -203.845)"/>
        <path id="Path_3050" data-name="Path 3050" class="cls-1" d="M9.43,83.509h-4.5a1.475,1.475,0,0,1-1.471-1.471V79.62a2.713,2.713,0,1,0-1.487,0v2.419a2.954,2.954,0,0,0,2.95,2.95H9.43a.74.74,0,1,0,0-1.479Zm-7.951-6.5A1.226,1.226,0,1,1,2.7,78.239,1.224,1.224,0,0,1,1.479,77.013Z" transform="translate(0 -73.54)"/>
        <path id="Path_3051" data-name="Path 3051" class="cls-1" d="M9.522,293.6h-4.5a2.954,2.954,0,0,0-2.95,2.95v2.419a2.713,2.713,0,1,0,1.487,0V296.55a1.475,1.475,0,0,1,1.471-1.471H9.538a.746.746,0,0,0,.744-.744A.77.77,0,0,0,9.522,293.6Zm-5.491,7.975A1.226,1.226,0,1,1,2.8,300.35,1.224,1.224,0,0,1,4.031,301.576Z" transform="translate(-0.092 -274.92)"/>
        <path id="Path_3052" data-name="Path 3052" class="cls-1" d="M372.269,216.2a2.721,2.721,0,0,0-2.607,1.969h-4.118a.744.744,0,1,0,0,1.487h4.118a2.712,2.712,0,1,0,2.607-3.457Zm0,3.939a1.226,1.226,0,1,1,1.226-1.226A1.224,1.224,0,0,1,372.269,220.139Z" transform="translate(-334.99 -203.845)"/>
        <path id="Path_3053" data-name="Path 3053" class="cls-1" d="M373.1,298.969V296.55a2.954,2.954,0,0,0-2.95-2.95h-4.511a.744.744,0,1,0,0,1.487h4.511a1.475,1.475,0,0,1,1.471,1.471v2.419a2.7,2.7,0,1,0,1.479-.008Zm-.744,3.841a1.226,1.226,0,1,1,1.226-1.226A1.224,1.224,0,0,1,372.361,302.809Z" transform="translate(-335.082 -274.92)"/>
        <path id="Path_3054" data-name="Path 3054" class="cls-1" d="M365.552,84.988h4.511a2.954,2.954,0,0,0,2.95-2.95V79.62a2.713,2.713,0,1,0-1.487,0v2.419a1.475,1.475,0,0,1-1.471,1.471h-4.511a.746.746,0,0,0-.744.744A.757.757,0,0,0,365.552,84.988Zm5.491-7.975a1.226,1.226,0,1,1,1.226,1.226A1.224,1.224,0,0,1,371.043,77.013Z" transform="translate(-334.99 -73.54)"/>
      </g>
    </g>
  </g>
</svg>
