<svg xmlns="http://www.w3.org/2000/svg" viewBox="0 0 40 40">
  <defs>
    <style>
      .cls-1 {
        fill: #a5a5a5;
      }
    </style>
  </defs>
  <g id="diagram-3" transform="translate(40) rotate(90)">
    <path id="Path_3027" data-name="Path 3027" class="cls-1" d="M23.333,2a2,2,0,0,0-2-2H18.667a2,2,0,0,0-2,2v.667H13.333a2,2,0,0,0-2,2V19.333H6.667v-.667a2,2,0,0,0-2-2H2a2,2,0,0,0-2,2v2.667a2,2,0,0,0,2,2H4.667a2,2,0,0,0,2-2v-.667h4.667V35.333a2,2,0,0,0,2,2h3.333V38a2,2,0,0,0,2,2h2.667a2,2,0,0,0,2-2v-.667h2V36h-2v-.667a2,2,0,0,0-2-2H18.667a2,2,0,0,0-2,2V36H13.333a.666.666,0,0,1-.667-.667V20.667h4v.667a2,2,0,0,0,2,2h2.667a2,2,0,0,0,2-2v-.667h2V19.333h-2v-.667a2,2,0,0,0-2-2H18.667a2,2,0,0,0-2,2v.667h-4V4.667A.666.666,0,0,1,13.333,4h3.333v.667a2,2,0,0,0,2,2h2.667a2,2,0,0,0,2-2V4h2V2.667h-2Zm-18,19.333A.666.666,0,0,1,4.667,22H2a.666.666,0,0,1-.667-.667V18.667A.666.666,0,0,1,2,18H4.667a.666.666,0,0,1,.667.667ZM18,35.333a.666.666,0,0,1,.667-.667h2.667a.666.666,0,0,1,.667.667V38a.666.666,0,0,1-.667.667H18.667A.666.666,0,0,1,18,38Zm0-16.667A.666.666,0,0,1,18.667,18h2.667a.666.666,0,0,1,.667.667v2.667a.666.666,0,0,1-.667.667H18.667A.666.666,0,0,1,18,21.333Zm4-14a.666.666,0,0,1-.667.667H18.667A.666.666,0,0,1,18,4.667V2a.666.666,0,0,1,.667-.667h2.667A.666.666,0,0,1,22,2Zm0,0"/>
    <path id="Path_3028" data-name="Path 3028" class="cls-1" d="M756,0h-2.667a2,2,0,0,0-2,2v.667H750V4h1.333v.667a2,2,0,0,0,2,2H756a2,2,0,0,0,2-2V2A2,2,0,0,0,756,0Zm.667,4.667a.666.666,0,0,1-.667.667h-2.667a.666.666,0,0,1-.667-.667V2a.666.666,0,0,1,.667-.667H756a.666.666,0,0,1,.667.667Zm0,0" transform="translate(-718)"/>
    <path id="Path_3029" data-name="Path 3029" class="cls-1" d="M756,781.25h-2.667a2,2,0,0,0-2,2v.667H750v1.333h1.333v.667a2,2,0,0,0,2,2H756a2,2,0,0,0,2-2V783.25A2,2,0,0,0,756,781.25Zm.667,4.667a.667.667,0,0,1-.667.667h-2.667a.666.666,0,0,1-.667-.667V783.25a.666.666,0,0,1,.667-.667H756a.666.666,0,0,1,.667.667Zm0,0" transform="translate(-718 -747.917)"/>
    <path id="Path_3030" data-name="Path 3030" class="cls-1" d="M756,390.625h-2.667a2,2,0,0,0-2,2v.667H750v1.333h1.333v.667a2,2,0,0,0,2,2H756a2,2,0,0,0,2-2v-2.667A2,2,0,0,0,756,390.625Zm.667,4.667a.666.666,0,0,1-.667.667h-2.667a.666.666,0,0,1-.667-.667v-2.667a.666.666,0,0,1,.667-.667H756a.666.666,0,0,1,.667.667Zm0,0" transform="translate(-718 -373.958)"/>
    <path id="Path_3031" data-name="Path 3031" class="cls-1" d="M609.375,62.5h1.333v1.333h-1.333Zm0,0" transform="translate(-583.375 -59.833)"/>
    <path id="Path_3032" data-name="Path 3032" class="cls-1" d="M656.25,62.5h1.333v1.333H656.25Zm0,0" transform="translate(-628.25 -59.833)"/>
    <path id="Path_3033" data-name="Path 3033" class="cls-1" d="M703.125,62.5h1.333v1.333h-1.333Zm0,0" transform="translate(-673.125 -59.833)"/>
    <path id="Path_3034" data-name="Path 3034" class="cls-1" d="M609.375,453.125h1.333v1.333h-1.333Zm0,0" transform="translate(-583.375 -433.792)"/>
    <path id="Path_3035" data-name="Path 3035" class="cls-1" d="M656.25,453.125h1.333v1.333H656.25Zm0,0" transform="translate(-628.25 -433.792)"/>
    <path id="Path_3036" data-name="Path 3036" class="cls-1" d="M703.125,453.125h1.333v1.333h-1.333Zm0,0" transform="translate(-673.125 -433.792)"/>
    <path id="Path_3037" data-name="Path 3037" class="cls-1" d="M609.375,843.75h1.333v1.333h-1.333Zm0,0" transform="translate(-583.375 -807.75)"/>
    <path id="Path_3038" data-name="Path 3038" class="cls-1" d="M656.25,843.75h1.333v1.333H656.25Zm0,0" transform="translate(-628.25 -807.75)"/>
    <path id="Path_3039" data-name="Path 3039" class="cls-1" d="M703.125,843.75h1.333v1.333h-1.333Zm0,0" transform="translate(-673.125 -807.75)"/>
  </g>
</svg>
